<svg xmlns="http://www.w3.org/2000/svg" viewBox="0 0 600 600"><defs><style>.a{fill:#0d0f21;}.b{fill:#fff;}.c{fill:#f89521;}</style></defs><rect class="a" width="600" height="600"/><path class="b" d="M167.75,286.75l19-19L147,228,74.75,300.15l72.2,72.2,39.83-39.83-19-19a18.89,18.89,0,0,1,0-26.71Z"/><path class="b" d="M313.25,168,332.3,187,372,147.35l-72.22-72.2-72.19,72.2,39.78,39.79L286.5,168a18.91,18.91,0,0,1,26.74,0Z"/><path class="b" d="M432,313.47l-19.17,19.16,39.75,39.75,72.17-72.23L452.55,228l-39.66,39.67L432,286.74a18.74,18.74,0,0,1,.39,26.6A.36.36,0,0,1,432,313.47Z"/><path class="b" d="M286.5,432.24l-19.11-19.11L227.56,453l72.19,72.19L372,453,332.2,413.21l-18.95,19a18.89,18.89,0,0,1-26.72,0Z"/><rect class="c" x="225.77" y="226.17" width="147.98" height="147.98" rx="6.98" transform="translate(-124.45 299.87) rotate(-45)"/></svg>